<?xml version="1.0" encoding="utf-8"?>
<!-- Generator: Adobe Illustrator 25.0.1, SVG Export Plug-In . SVG Version: 6.00 Build 0)  -->
<svg version="1.1" id="Layer_1" xmlns="http://www.w3.org/2000/svg" xmlns:xlink="http://www.w3.org/1999/xlink" x="0px" y="0px"
	 viewBox="0 0 1500 1500" style="enable-background:new 0 0 1500 1500;" xml:space="preserve">
<style type="text/css">
	.st0{fill:#FFFFFF;}
</style>
<g>
	<path class="st0" d="M1384.8,330.9L889.5,750l495.2,419.1c10.1-17.8,15.4-38,15.3-58.5V389.5C1400.1,369,1394.9,348.8,1384.8,330.9
		L1384.8,330.9z"/>
	<path class="st0" d="M610.5,750L115.2,330.9c-10.1,17.8-15.4,38-15.3,58.5v721.1c-0.1,20.5,5.2,40.7,15.3,58.5L610.5,750z"/>
	<path class="st0" d="M660.4,731.4c23.5,24.2,55.8,37.9,89.6,37.9s66.1-13.7,89.6-37.9l515-435.8c-21.1-16.6-47.2-25.7-74.1-25.8
		h-1061c-26.8-0.1-52.9,9-73.8,25.8L660.4,731.4z"/>
	<path class="st0" d="M853.3,780.2c-29.4,23.3-65.8,36-103.3,36c-37.5,0-73.9-12.7-103.3-36l-501,424.2c21,16.7,47,25.8,73.8,25.8
		h1061c26.9,0,53-9.1,74.1-25.8L853.3,780.2z"/>
</g>
</svg>
