<?xml version="1.0" encoding="utf-8"?>
<!-- Generator: Adobe Illustrator 25.0.1, SVG Export Plug-In . SVG Version: 6.00 Build 0)  -->
<svg version="1.1" xmlns="http://www.w3.org/2000/svg" xmlns:xlink="http://www.w3.org/1999/xlink" x="0px" y="0px"
	 viewBox="0 0 1500 1500" style="enable-background:new 0 0 1500 1500;" xml:space="preserve">
<style type="text/css">
	.st0{fill:#FFFFFF;}
</style>
<g id="Layer_1">
	<path class="st0" d="M1385.6,1239.9c-4.3,7.6-9.8,15-16.7,21.7c-34.6,34.5-75.4,67.8-124.7,101.8c-45.5,31.4-103.4,43.3-159.2,32.9
		c-243.5-45.6-465.6-163-641.9-339.4C266.7,880.5,149.3,658.5,103.7,414.9c-10.4-55.7,1.5-113.7,32.9-159.2
		c33.9-49.3,67.2-90.1,101.7-124.7c6.9-6.9,14.2-12.5,22.3-16.9c16.3-9.5,34.5-14.2,52.8-14.2c16.7,0,33.6,4,49.3,11.9l37.4,19.1
		c18.5,9.2,34,24.1,44.9,42.5c51.6,88.5,84.8,181.9,98.6,277.8c1.6,11.6-2.1,23.5-10.3,32.9L436.4,596c-24.9,28.6-27.7,71-6.9,103
		c47.8,73.1,103.9,142,166.8,204.8c62.8,62.9,131.7,119,204.8,166.8c32,20.8,74.4,18,103-6.9l111.9-96.8
		c9.2-8.2,21.3-11.9,32.7-10.3c95.9,13.8,189.4,46.9,277.8,98.6c18.6,10.9,33.3,26.4,42.7,45l18.9,37.4
		C1404.7,1170.1,1404,1208.4,1385.6,1239.9L1385.6,1239.9z"/>
</g>
<g id="Layer_2">
</g>
</svg>
